<?xml version="1.0" encoding="UTF-8"?>
<!DOCTYPE svg PUBLIC "-//W3C//DTD SVG 1.1//EN" "http://www.w3.org/Graphics/SVG/1.1/DTD/svg11.dtd">
<!-- Creator: CorelDRAW 2018 (64 Bit) -->
<svg xmlns="http://www.w3.org/2000/svg" xml:space="preserve" width="280px" height="41px" version="1.1" style="shape-rendering:geometricPrecision; text-rendering:geometricPrecision; image-rendering:optimizeQuality; fill-rule:evenodd; clip-rule:evenodd"
viewBox="0 0 280000 41360"
 xmlns:xlink="http://www.w3.org/1999/xlink">
 <defs>
  <style type="text/css">
   <![CDATA[
    .fil0 {fill:#235789}
   ]]>
  </style>
 </defs>
 <g id="Camada_x0020_1">
  <metadata id="CorelCorpID_0Corel-Layer"/>
  <path class="fil0" d="M860 11570c640,-430 1300,-1330 1900,-1830 330,-270 430,-310 740,-620 1650,-1660 3750,-3460 5970,-4360 4060,-1630 9330,-1290 11740,2760 2680,4500 2590,11720 540,16360 -690,1580 -1990,3840 -3080,5250 -260,330 -300,440 -770,480 -230,-850 -990,-890 -550,-1910 310,-690 660,-1220 960,-1910 1580,-3670 1580,-7380 -910,-10620 -6290,-8200 -16540,-2290 -16540,10 0,870 2170,2730 2830,3390 1840,1830 6970,7140 8700,8580 1130,950 9420,9410 11760,11750 310,310 1310,1530 1710,1530l11440 0c1380,0 2610,-960 3030,-1950 510,-1200 330,-3140 330,-4770 0,-3360 0,-6720 0,-10080 -3600,1730 -8370,2200 -11540,-770l-1150 -1460c-1390,-2110 -2110,-5060 -2110,-8460 0,-5550 1630,-8860 3850,-12190l-24750 0c-1380,0 -2530,-40 -3540,1440 -370,540 -510,1180 -560,1910l0 2490 0 80 0 80 0 80 0 80 0 70 0 80 0 80 0 80 0 70 0 80 0 80 0 80 0 80 0 70 0 80 0 80 0 80 0 70 0 80 0 80 0 80 0 80 0 70 0 80 0 80 0 80 0 70 0 80 0 80 0 80 0 70 0 80 0 80 0 80 0 80 0 70 0 80 0 80 0 80 0 70 0 80 0 80 0 80 0 80 0 70 0 80 0 80 0 80 0 70 0 80 0 80 0 80 0 70 0 80 0 80 0 80 0 80 0 70 0 80 0 80 0 80 0 70 0 80 0 80z"/>
  <path class="fil0" d="M128770 5580l0 30060c0,450 130,590 580,590l6200 0 0 -23470c30,40 70,50 80,120 10,70 50,100 70,120 10,40 100,220 120,270 120,320 120,400 210,770 140,610 220,930 380,1550l5540 20640 6400 0 6400 -23860 0 23860 6990 0 0 -31230 -11830 0c-60,710 -320,1480 -510,2210l-2710 11640c-220,870 -320,1490 -550,2370 -190,750 -440,1660 -500,2400l-690 -2220c-240,-840 -440,-1590 -630,-2280l-2490 -9340c-240,-810 -420,-1570 -610,-2300 -220,-860 -550,-1590 -620,-2480l-9310 0c-980,0 -2520,-310 -2520,580z"/>
  <path class="fil0" d="M252500 36230c7940,0 7020,550 6990,-1940l-10 -18040c30,40 80,50 90,110l10860 17460c1970,3220 310,2410 8840,2410l0 -31230c-7930,0 -7020,-550 -6990,1940l0 18430c-30,-40 -70,-140 -80,-120 -10,30 -60,-80 -80,-110l-11820 -19010c-310,-510 -420,-1130 -1010,-1130l-6790 0 0 31230z"/>
  <path class="fil0" d="M101610 5580l0 30650 7180 0 0 -24050 7180 0c820,0 1160,1010 1160,1940 0,1450 -6590,6040 -6590,8920 0,1600 2350,5190 3280,6800 1210,2080 2370,4410 3700,6390l8340 0c-400,-1690 -6980,-10850 -6980,-12610 0,-1990 1680,-2120 3220,-4150 2670,-3530 2230,-8710 -390,-12060 -1380,-1760 -3110,-2410 -6130,-2410l-13380 0c-450,0 -590,140 -590,580z"/>
  <path class="fil0" d="M226510 21490c0,-3060 220,-5180 1800,-7320 3460,-4690 13720,-4030 13720,5960 0,2820 -200,5470 -1800,7510l-2030 1840c-2650,1670 -7480,1290 -9860,-1860 -1100,-1460 -1830,-3680 -1830,-6130zm-6780 -2140c0,5120 380,9400 4210,13050 6750,6440 25270,6260 25270,-12080 0,-6670 -2960,-11770 -8420,-14070 -7220,-3050 -16760,-650 -19790,7010 -710,1780 -1270,3700 -1270,6090z"/>
  <path class="fil0" d="M180160 15280c170,710 440,1490 720,2190 300,760 470,1370 780,2130l1600 4410 -6590 0c750,-1420 2720,-8160 3490,-8730zm-14930 20950l6980 0c230,-490 410,-1120 640,-1690l1880 -5100 10670 0c80,990 750,2340 1090,3370l1230 3420 6990 0c-180,-780 -440,-1230 -710,-2010l-5390 -14780c-680,-1790 -3910,-11240 -4730,-12340 -2080,-2770 -5570,-2660 -7550,-300 -1160,1390 -4120,10380 -4920,12530l-6180 16900z"/>
  <path class="fil0" d="M83380 15090c380,540 550,1410 810,2100l2490 6820 -6400 0c90,-1030 2710,-7210 3100,-8920zm-14740 21140l6990 0c310,-600 400,-940 650,-1680 240,-700 390,-990 630,-1690l1240 -3420 10470 0c480,910 890,2250 1280,3370l1240 3420 6980 0 -9140 -25190c-870,-2310 -1770,-5980 -5600,-5990 -1320,0 -3090,1020 -3720,1860 -910,1210 -4160,10560 -4830,12420l-6190 16900z"/>
  <path class="fil0" d="M56620 19350l-4660 0 0 -8920c3370,0 11450,-850 11450,3880 0,1640 40,3240 -2250,4340 -1100,530 -2980,700 -4540,700zm-11250 16880l6590 0 0 -11450c5700,0 11030,690 15000,-2270 5560,-4140 4860,-16280 -4940,-17290 -3750,-380 -12610,-220 -16650,-220l0 31230z"/>
  <path class="fil0" d="M29710 7590c0,1990 230,2960 1040,4560 670,1330 1260,1890 2230,2870 1610,1630 4120,2890 7310,2890 280,0 370,-80 370,-370l0 -13180c0,-1800 -1110,-3340 -2640,-3580 -1290,-220 -4680,-30 -6190,-30 -60,690 -440,980 -700,1540 -700,1570 -1420,3480 -1420,5300z"/>
  <path class="fil0" d="M195480 19350c0,5210 1010,9450 4220,12660 4960,4960 10280,4220 17510,4220l0 -7180c-3220,0 -7640,360 -10230,-630 -5910,-2260 -6630,-12410 10,-15410 2120,-950 7540,-640 10220,-640l0 -7370c-7100,0 -13140,-1130 -17570,4540 -1060,1360 -1980,2590 -2690,4300 -660,1590 -1470,3400 -1470,5510z"/>
  <path class="fil0" d="M15160 40430c-150,-560 -2790,-2860 -3510,-3580 -940,-940 -10240,-10360 -10790,-10730l0 10930c40,1090 420,1820 980,2390 560,560 1380,980 2500,990l10820 0z"/>
 </g>
</svg>
